<svg width="108" height="90" viewBox="0 0 108 90" fill="none" xmlns="http://www.w3.org/2000/svg">
<path fill-rule="evenodd" clip-rule="evenodd" d="M52.8643 14.8579C49.9452 14.282 47.6998 11.8633 47.1384 8.98382C46.2403 4.14638 49.8329 0 54.4361 0C57.4674 0 60.0496 1.95801 61.1723 4.60709H66V6.5651H61.6214V7.48652C61.6214 12.0936 57.5797 15.7793 52.8643 14.8579ZM38 31H11L11.1125 34H38V31ZM11 37H38V40H11.1125L11 37ZM38 42H11L11.1125 45H38V42ZM11 48H38V51H11.1125L11 48ZM38.5 67C32.1359 67 27 72.1359 27 78.5C27 84.8641 32.1359 90 38.5 90C44.8641 90 50 84.8641 50 78.5C50 72.1359 44.8641 67 38.5 67ZM38 82C36.3846 82 35 80.6154 35 79C35 77.3846 36.2692 76 38 76C39.6154 76 41 77.3846 41 79C41 80.6154 39.6154 82 38 82ZM80 78.5C80 72.1359 85.1359 67 91.5 67C97.7524 67 103 72.1359 103 78.5C103 84.8641 97.8641 90 91.5 90C85.1359 90 80 84.8641 80 78.5ZM91 82C89.3846 82 88 80.6154 88 79C88 77.3846 89.3846 76 91 76C92.6154 76 94 77.3846 94 79C93.8846 80.6154 92.6154 82 91 82ZM3 69H12V72H3V69ZM15 74H0V77H15V74ZM77 33.6987V34.0466C76.5374 33.9306 75.9591 33.8146 75.4965 33.8146C73.646 33.8146 72.0268 34.8583 71.2172 36.5978H59.3045C58.4949 36.5978 57.801 36.2499 57.3384 35.5541L55.7192 33.1189L54.1 42.28H61.502C65.0874 42.28 67.9788 45.179 67.9788 48.7739V65.9364C67.9788 68.1397 66.5909 70.1111 63.8151 69.9951C61.6177 69.8792 59.9985 68.0238 59.9985 65.8205V51.441H47.6232C43.2283 51.441 38.7177 47.8462 40.3369 42.6278C42.0717 36.8297 47.2763 19.5512 47.2763 19.5512C47.7389 18.0437 49.1268 17 50.6303 17H55.8348C57.3384 17 58.6106 17.9277 59.1889 19.3193L63.0056 29.4081H72.605C75.3808 29.408 77 31.6113 77 33.6987ZM95.5757 61.1266C96.1404 61.2403 96.8181 61.4677 97.4958 61.6951C102.466 63.5142 106.08 67.4935 108 72.9509L104.837 73.9742C103.03 68.2894 97.8347 64.1964 91.6225 64.1964C83.942 64.1964 77.7299 70.4496 77.7299 78.1809C77.7299 78.398 77.7134 78.5322 77.6993 78.6468C77.6765 78.8323 77.66 78.9665 77.7299 79.3178H52.3165C52.4294 77.9535 52.4294 77.1576 52.2035 75.7933C51.0741 69.199 45.4266 64.1964 38.5368 64.1964C30.8563 64.1964 24.6441 70.4496 24.6441 78.1809C24.6441 78.7494 24.6441 79.3178 24.87 80H22.3852C22.3852 80 15.3824 66.6977 12.8975 62.3773C10.6386 58.3979 12.7846 53.2817 17.7543 53.2817H57.9639V71.4729H71.5177L81.4571 56.2377L74.9061 40.5478C73.7767 40.3204 72.986 39.4109 72.986 38.2739C72.986 37.0233 74.0026 36 75.245 36C76.0356 36 76.7133 36.3411 77.1651 37.0233L84.3938 46.4599C84.9585 44.0724 87.1046 42.3669 89.5894 42.3669C90.7189 42.3669 91.7354 42.708 92.639 43.2765V52.2584C91.7354 52.8269 90.7189 53.168 89.5894 53.168H89.4765L95.5757 61.1266Z" fill="white"/>
</svg>
