<svg width="109" height="109" viewBox="0 0 109 109" fill="none" xmlns="http://www.w3.org/2000/svg">
<path fill-rule="evenodd" clip-rule="evenodd" d="M93.4777 2.90274C95.1261 1.11381 97.3239 0.0129347 99.7965 0.0129347C102.269 -0.124675 104.604 0.838594 106.39 2.76513C108.176 4.41645 109 6.75582 109 9.2328C109 11.5722 107.901 13.9115 106.115 15.5629L69.3013 49.6901C79.6037 64.6896 77.818 84.7806 64.7682 97.8536C57.7626 105.009 48.0096 109 37.9819 109H36.7456C26.1685 108.587 16.4155 104.046 9.40983 96.0647C-3.22781 81.7532 -3.09045 60.1485 9.5472 45.837C22.3222 31.388 43.4765 28.7734 59.2736 39.6446L93.4777 2.90274ZM66.554 48.4516L104.192 13.4987C105.428 12.2602 106.115 10.7465 106.115 9.09519C106.115 7.30626 105.566 5.79255 104.33 4.55406C103.093 3.31557 101.445 2.76513 99.7965 2.76513C98.1481 2.90274 96.4997 3.59079 95.4008 4.82928L60.5099 42.5344C60.0978 42.9472 59.2736 43.0848 58.7241 42.672C52.4053 37.9933 45.2623 35.7915 37.9819 35.7915C28.2289 35.7915 18.6133 39.9198 11.7451 47.7636C-0.0684035 60.9741 -0.0684025 80.9276 11.6077 94.2757C18.0639 101.707 27.13 105.973 36.883 106.248C46.636 106.523 55.9768 102.808 62.8451 95.9271C75.0707 83.6798 76.5817 64.1392 66.4166 50.2406C66.0045 49.6901 66.0045 48.8645 66.554 48.4516Z" fill="white"/>
<path d="M42.5 49C43.3284 49 44 48.3284 44 47.5C44 46.6716 43.3284 46 42.5 46C41.6716 46 41 46.6716 41 47.5C41 48.3284 41.6716 49 42.5 49Z" fill="white"/>
<path d="M34.5 49C35.3284 49 36 48.3284 36 47.5C36 46.6716 35.3284 46 34.5 46C33.6716 46 33 46.6716 33 47.5C33 48.3284 33.6716 49 34.5 49Z" fill="white"/>
<path d="M37 55C37.5523 55 38 54.5523 38 54C38 53.4477 37.5523 53 37 53C36.4477 53 36 53.4477 36 54C36 54.5523 36.4477 55 37 55Z" fill="white"/>
<path d="M40 53C40.5523 53 41 52.5523 41 52C41 51.4477 40.5523 51 40 51C39.4477 51 39 51.4477 39 52C39 52.5523 39.4477 53 40 53Z" fill="white"/>
<path d="M38 60C38.5523 60 39 59.5523 39 59C39 58.4477 38.5523 58 38 58C37.4477 58 37 58.4477 37 59C37 59.5523 37.4477 60 38 60Z" fill="white"/>
<path d="M58.4358 58.6561C59.0328 58.0734 59.0443 57.117 58.4616 56.52C57.8789 55.923 56.9225 55.9115 56.3255 56.4942C55.7285 57.0769 55.717 58.0333 56.2997 58.6303C56.8824 59.2273 57.8388 59.2388 58.4358 58.6561Z" fill="white"/>
<path d="M53.0804 53.1527C53.6773 52.57 53.6889 51.6136 53.1062 51.0166C52.5235 50.4196 51.5671 50.4081 50.9701 50.9908C50.3731 51.5735 50.3616 52.5299 50.9443 53.1268C51.527 53.7238 52.4834 53.7354 53.0804 53.1527Z" fill="white"/>
<path d="M50.2147 59.2432C50.7031 58.7664 50.7126 57.9839 50.2358 57.4955C49.759 57.0071 48.9766 56.9976 48.4881 57.4744C47.9997 57.9511 47.9902 58.7336 48.467 59.2221C48.9438 59.7105 49.7262 59.72 50.2147 59.2432Z" fill="white"/>
<path d="M54.1622 60.6048C54.6506 60.1281 54.6601 59.3456 54.1833 58.8571C53.7065 58.3687 52.9241 58.3592 52.4356 58.836C51.9472 59.3128 51.9377 60.0952 52.4145 60.5837C52.8913 61.0721 53.6737 61.0816 54.1622 60.6048Z" fill="white"/>
<path d="M47.5654 63.8958C48.1082 63.366 48.1187 62.4966 47.5889 61.9539C47.0592 61.4111 46.1898 61.4006 45.647 61.9304C45.1043 62.4601 45.0938 63.3295 45.6236 63.8723C46.1533 64.415 47.0227 64.4255 47.5654 63.8958Z" fill="white"/>
<path fill-rule="evenodd" clip-rule="evenodd" d="M66.2202 60.3348L66.2202 60.3348C66.2498 60.1684 66.2757 60.0223 66.1867 59.9335C66.0489 58.0089 64.9464 54.1596 60.5364 49.6231C56.1264 45.0865 52.2676 43.9867 50.3382 43.7118H50.2004C50.1587 43.6701 50.117 43.6159 50.0714 43.5567C49.9665 43.4204 49.8413 43.2577 49.6492 43.1619C48.1332 41.9246 44.6879 40 38.3485 40C32.0091 40 28.5638 41.9246 27.0478 43.1619C26.0831 43.8492 25.8075 45.0865 26.2209 46.1863L35.3166 68.0443L14.0934 56.9091C13.1287 56.3592 11.7506 56.6341 11.0615 57.459C9.82118 58.8337 7.61617 62.133 7.06492 68.4568C6.65148 74.7805 8.30524 78.3548 9.40774 80.0044L9.54556 80.1419C9.54556 80.303 9.49827 80.464 9.45909 80.5974C9.43139 80.6918 9.40774 80.7723 9.40774 80.8293C9.54556 82.7539 10.3724 86.6031 14.5068 91.2772C18.779 96.0887 22.5 97.3259 24.4294 97.7384H24.5672C24.705 98.0133 24.8428 98.1508 24.9806 98.2882C26.3588 99.5255 29.8041 101.725 36.1435 102H37.5216C43.0341 102 46.2038 100.35 47.582 99.388C47.582 99.388 47.582 99.2506 47.7198 99.2506C47.7887 99.2506 47.892 99.2849 47.9954 99.3193C48.0988 99.3537 48.2021 99.388 48.271 99.388H48.4088C50.3382 99.2506 54.197 98.2882 58.7448 94.0266C63.4305 89.765 64.6708 85.9157 64.9464 83.9911V83.8537C65.222 83.7162 65.3599 83.5787 65.4977 83.3038C66.738 81.7916 68.8052 78.4922 68.943 72.1685C69.3564 65.7073 67.4271 62.133 66.1867 60.6208C66.1867 60.5235 66.204 60.4261 66.2202 60.3348ZM37.6594 70.3814C37.7283 70.3814 37.8317 70.4157 37.9351 70.4501C38.0384 70.4845 38.1418 70.5188 38.2107 70.5188H38.3485C38.3485 70.5188 38.4863 70.6563 38.4863 70.7938C38.4863 70.7938 38.6241 70.7938 38.6241 70.9313V71.2062V71.3437C38.5552 71.3437 38.5208 71.378 38.4863 71.4124C38.4519 71.4468 38.4174 71.4812 38.3485 71.4812C38.3485 71.4812 38.3485 71.6186 38.2107 71.6186H37.9351H37.7972C37.7972 71.5499 37.7628 71.5155 37.7283 71.4812C37.6939 71.4468 37.6594 71.4124 37.6594 71.3437C37.6594 71.3437 37.5216 71.3437 37.5216 71.2062V70.9313C37.6594 70.6563 37.6594 70.5188 37.6594 70.3814ZM40.8291 68.4568L63.4305 59.796C63.1548 58.2838 62.328 55.2594 58.607 51.5477C54.8861 47.6984 51.7164 46.7361 50.3382 46.4612L40.8291 68.4568ZM38.4863 42.7494C43.7232 42.7494 46.6173 44.2616 47.8576 45.0865C47.8576 45.0865 47.8576 45.2239 47.7198 45.2239L38.2107 67.4945L28.9772 45.2239C30.0797 44.3991 32.9738 42.7494 38.4863 42.7494ZM13.1287 59.2461C12.164 60.2084 10.3724 62.9579 9.95899 68.4568C9.54556 73.8182 10.7859 76.7051 11.6128 78.0798L34.6275 70.5188L13.1287 59.2461ZM16.7118 89.3525C13.2665 85.3659 12.4396 82.3415 12.3018 80.8293H12.4396L35.3166 73.2683L24.705 94.8514C23.1891 94.439 20.1572 93.3392 16.7118 89.3525ZM27.1856 96.3636C28.4259 97.1885 31.1822 98.8381 36.4191 99.1131C41.656 99.388 44.6879 98.0133 45.9282 97.1885L37.9351 74.5055L27.3234 96.2262C27.1856 96.2262 27.1856 96.3636 27.1856 96.3636ZM57.0911 91.827C53.2323 95.4013 50.0626 96.2262 48.6845 96.3636V96.2262L40.5535 73.5432L62.4658 83.7162C62.0523 85.2284 60.9498 88.2528 57.0911 91.827ZM41.7938 71.2062L63.8439 81.2417C64.6708 80.0044 66.3246 77.255 66.4624 72.031C66.6002 66.8071 65.222 63.9202 64.3952 62.6829L41.7938 71.2062Z" fill="white"/>
<path d="M62.7359 75.7617C62.756 74.9277 62.0963 74.2353 61.2623 74.2151C60.4283 74.195 59.7358 74.8548 59.7157 75.6888C59.6955 76.5228 60.3553 77.2152 61.1893 77.2353C62.0233 77.2555 62.7157 76.5957 62.7359 75.7617Z" fill="white"/>
<path d="M62.9134 67.9927C62.9336 67.1587 62.2738 66.4662 61.4398 66.4461C60.6058 66.4259 59.9134 67.0857 59.8932 67.9197C59.8731 68.7537 60.5328 69.4461 61.3668 69.4663C62.2009 69.4864 62.8933 68.8267 62.9134 67.9927Z" fill="white"/>
<path d="M56.2716 70.5413C56.288 69.8589 55.7482 69.2924 55.0659 69.2759C54.3835 69.2594 53.817 69.7992 53.8005 70.4816C53.784 71.1639 54.3238 71.7305 55.0062 71.747C55.6885 71.7635 56.2551 71.2237 56.2716 70.5413Z" fill="white"/>
<path d="M57.9169 74.3192C57.9334 73.6368 57.3936 73.0703 56.7113 73.0537C56.0289 73.0372 55.4623 73.577 55.4458 74.2594C55.4293 74.9418 55.9691 75.5083 56.6515 75.5248C57.3339 75.5413 57.9004 75.0015 57.9169 74.3192Z" fill="white"/>
<path d="M51.2641 71.848C51.2824 71.0898 50.6827 70.4603 49.9245 70.442C49.1663 70.4236 48.5368 71.0234 48.5185 71.7816C48.5001 72.5398 49.0999 73.1693 49.8581 73.1876C50.6163 73.2059 51.2458 72.6062 51.2641 71.848Z" fill="white"/>
<path d="M51.8726 92.2016C52.4835 91.6335 52.5182 90.6777 51.9501 90.0668C51.382 89.4558 50.4261 89.4211 49.8152 89.9893C49.2043 90.5574 49.1696 91.5132 49.7377 92.1241C50.3059 92.735 51.2617 92.7697 51.8726 92.2016Z" fill="white"/>
<path d="M57.5113 86.974C58.1222 86.4058 58.1569 85.45 57.5888 84.8391C57.0206 84.2282 56.0648 84.1935 55.4539 84.7616C54.843 85.3297 54.8083 86.2855 55.3764 86.8965C55.9445 87.5074 56.9003 87.5421 57.5113 86.974Z" fill="white"/>
<path d="M51.068 84.0067C51.5678 83.5419 51.5962 82.7599 51.1314 82.26C50.6665 81.7602 49.8845 81.7318 49.3847 82.1966C48.8848 82.6614 48.8564 83.4435 49.3213 83.9433C49.7861 84.4432 50.5681 84.4716 51.068 84.0067Z" fill="white"/>
<path d="M49.5085 87.8761C50.0084 87.4113 50.0368 86.6293 49.5719 86.1294C49.1071 85.6296 48.3251 85.6012 47.8252 86.066C47.3254 86.5308 47.297 87.3129 47.7618 87.8127C48.2266 88.3126 49.0087 88.3409 49.5085 87.8761Z" fill="white"/>
<path d="M46.7027 81.1862C47.2581 80.6698 47.2896 79.8008 46.7731 79.2454C46.2566 78.6901 45.3877 78.6585 44.8323 79.175C44.277 79.6915 44.2454 80.5604 44.7619 81.1158C45.2784 81.6712 46.1473 81.7027 46.7027 81.1862Z" fill="white"/>
<path d="M34.1171 94.6223C34.1574 93.7891 33.5146 93.0809 32.6814 93.0406C31.8481 93.0003 31.1399 93.6431 31.0996 94.4763C31.0593 95.3096 31.7021 96.0177 32.5353 96.0581C33.3686 96.0984 34.0768 95.4556 34.1171 94.6223Z" fill="white"/>
<path d="M41.8318 94.9787C41.8721 94.1455 41.2293 93.4373 40.396 93.397C39.5628 93.3566 38.8546 93.9994 38.8143 94.8327C38.774 95.6659 39.4168 96.3741 40.25 96.4144C41.0833 96.4548 41.7914 95.812 41.8318 94.9787Z" fill="white"/>
<path d="M39.222 88.4229C39.255 87.7412 38.7291 87.1618 38.0473 87.1288C37.3656 87.0958 36.7862 87.6217 36.7532 88.3035C36.7202 88.9852 37.2462 89.5646 37.9279 89.5976C38.6097 89.6306 39.1891 89.1047 39.222 88.4229Z" fill="white"/>
<path d="M35.3561 90.0702C35.3891 89.3884 34.8631 88.809 34.1814 88.776C33.4996 88.743 32.9202 89.2689 32.8872 89.9507C32.8543 90.6324 33.3802 91.2119 34.0619 91.2448C34.7437 91.2778 35.3231 90.7519 35.3561 90.0702Z" fill="white"/>
<path d="M38.2095 83.2435C38.2462 82.486 37.6618 81.8422 36.9043 81.8056C36.1468 81.7689 35.503 82.3533 35.4663 83.1108C35.4297 83.8683 36.014 84.5121 36.7715 84.5487C37.529 84.5854 38.1728 84.001 38.2095 83.2435Z" fill="white"/>
<path d="M18.4618 84.8851C19.0863 84.3319 19.144 83.3773 18.5908 82.7528C18.0376 82.1284 17.083 82.0706 16.4585 82.6238C15.8341 83.177 15.7763 84.1317 16.3295 84.7561C16.8827 85.3806 17.8374 85.4383 18.4618 84.8851Z" fill="white"/>
<path d="M23.5564 90.6592C24.1808 90.106 24.2386 89.1513 23.6854 88.5269C23.1322 87.9025 22.1775 87.8447 21.5531 88.3979C20.9286 88.9511 20.8709 89.9057 21.4241 90.5302C21.9773 91.1546 22.9319 91.2124 23.5564 90.6592Z" fill="white"/>
<path d="M26.3275 84.3233C26.8384 83.8707 26.8857 83.0896 26.433 82.5787C25.9804 82.0678 25.1993 82.0206 24.6884 82.4732C24.1775 82.9258 24.1303 83.7069 24.5829 84.2178C25.0355 84.7287 25.8166 84.776 26.3275 84.3233Z" fill="white"/>
<path d="M22.4422 82.6643C22.9531 82.2117 23.0003 81.4306 22.5477 80.9197C22.0951 80.4088 21.314 80.3615 20.8031 80.8141C20.2922 81.2668 20.245 82.0478 20.6976 82.5587C21.1502 83.0696 21.9313 83.1169 22.4422 82.6643Z" fill="white"/>
<path d="M29.4256 79.9673C29.9933 79.4644 30.0458 78.5966 29.5429 78.0289C29.04 77.4612 28.1721 77.4087 27.6045 77.9116C27.0368 78.4145 26.9843 79.2824 27.4872 79.8501C27.9901 80.4177 28.858 80.4702 29.4256 79.9673Z" fill="white"/>
<path d="M16.0279 65.6078C16.0883 64.7757 15.4627 64.0522 14.6307 63.9918C13.7986 63.9314 13.075 64.5569 13.0146 65.389C12.9542 66.2211 13.5798 66.9446 14.4118 67.005C15.2439 67.0655 15.9674 66.4399 16.0279 65.6078Z" fill="white"/>
<path d="M15.5003 73.2645C15.5608 72.4324 14.9352 71.7089 14.1032 71.6485C13.2711 71.588 12.5475 72.2135 12.4871 73.0456C12.4266 73.8777 13.0522 74.6012 13.8842 74.6617C14.7163 74.7221 15.4399 74.0966 15.5003 73.2645Z" fill="white"/>
<path d="M21.672 70.9748C21.7215 70.294 21.2097 69.702 20.5289 69.6526C19.8481 69.6031 19.2561 70.115 19.2067 70.7958C19.1572 71.4765 19.669 72.0685 20.3498 72.118C21.0306 72.1674 21.6226 71.6556 21.672 70.9748Z" fill="white"/>
<path d="M20.1504 67.1666C20.1999 66.4858 19.6881 65.8938 19.0073 65.8444C18.3265 65.7949 17.7345 66.3067 17.685 66.9875C17.6356 67.6683 18.1474 68.2603 18.8282 68.3097C19.509 68.3592 20.101 67.8474 20.1504 67.1666Z" fill="white"/>
<path d="M27.0311 69.9864C27.0861 69.23 26.5174 68.5722 25.7609 68.5173C25.0045 68.4623 24.3467 69.031 24.2918 69.7874C24.2369 70.5439 24.8055 71.2016 25.562 71.2566C26.3184 71.3115 26.9762 70.7428 27.0311 69.9864Z" fill="white"/>
</svg>
