<svg width="74" height="106" viewBox="0 0 74 106" fill="none" xmlns="http://www.w3.org/2000/svg">
<path fill-rule="evenodd" clip-rule="evenodd" d="M42.3221 5.54042H54.2345C56.604 5.54042 58.5772 7.2598 59.0044 9.53495H69.5313C71.5427 9.53495 73.1733 11.1865 73.1733 13.2253V101.431C73.1733 103.469 71.5432 105.121 69.5313 105.121H3.97147C1.96008 105.121 0.329529 103.469 0.329529 101.431V13.2253C0.329529 11.1872 1.95959 9.53495 3.97147 9.53495H14.4984C14.9257 7.26013 16.8987 5.54042 19.2683 5.54042H31.1807C31.3853 2.60375 33.8012 0.285736 36.7514 0.285736C39.7016 0.285736 42.1175 2.60375 42.3221 5.54042ZM14.4127 15.9073H5.18578V98.7485H68.317V15.9073H59.0902V18.6097H14.4127V15.9073ZM17.694 45.1541C13.5236 45.1541 10.1408 41.7409 10.1408 37.5279C10.1408 33.3149 13.5236 29.9017 17.694 29.9017C18.3645 29.9017 18.9081 30.4525 18.9081 31.1319C18.9081 31.8113 18.3645 32.3621 17.694 32.3621C14.8623 32.3621 12.5689 34.6761 12.5689 37.5279C12.5689 40.3797 14.8623 42.6937 17.694 42.6937C20.5257 42.6937 22.8191 40.3797 22.8191 37.5279C22.8191 36.8485 23.3626 36.2977 24.0331 36.2977C24.7037 36.2977 25.2472 36.8485 25.2472 37.5279C25.2472 41.7409 21.8644 45.1541 17.694 45.1541ZM10.1408 58.9694C10.1408 63.1824 13.5236 66.5956 17.694 66.5956C21.8644 66.5956 25.2472 63.1824 25.2472 58.9694C25.2472 58.29 24.7037 57.7392 24.0331 57.7392C23.3626 57.7392 22.8191 58.29 22.8191 58.9694C22.8191 61.8212 20.5257 64.1352 17.694 64.1352C14.8623 64.1352 12.5689 61.8212 12.5689 58.9694C12.5689 56.1176 14.8623 53.8036 17.694 53.8036C18.3645 53.8036 18.9081 53.2528 18.9081 52.5734C18.9081 51.894 18.3645 51.3432 17.694 51.3432C13.5236 51.3432 10.1408 54.7564 10.1408 58.9694ZM17.694 71.5213C21.8644 71.5213 25.2472 74.9345 25.2472 79.1475C25.2472 83.3605 21.8644 86.7736 17.694 86.7736C13.5236 86.7736 10.1408 83.3605 10.1408 79.1475C10.1408 74.9345 13.5236 71.5213 17.694 71.5213ZM12.5689 79.1475C12.5689 76.2957 14.8623 73.9817 17.694 73.9817C20.5257 73.9817 22.8191 76.2957 22.8191 79.1475C22.8191 81.9993 20.5257 84.3133 17.694 84.3133C14.8623 84.3133 12.5689 81.9993 12.5689 79.1475ZM61.418 36.9682C61.418 38.3271 60.3309 39.4286 58.9899 39.4286H32.2496C30.9086 39.4286 29.8214 38.3271 29.8214 36.9682C29.8214 35.6094 30.9086 34.5079 32.2496 34.5079H58.9899C60.3309 34.5079 61.418 35.6094 61.418 36.9682ZM58.9899 60.834C60.3309 60.834 61.418 59.7324 61.418 58.3736C61.418 57.0148 60.3309 55.9132 58.9899 55.9132H32.2496C30.9086 55.9132 29.8214 57.0148 29.8214 58.3736C29.8214 59.7324 30.9086 60.834 32.2496 60.834H58.9899ZM61.418 78.4257C61.418 79.7846 60.3309 80.8861 58.9899 80.8861H32.2496C30.9086 80.8861 29.8214 79.7846 29.8214 78.4257C29.8214 77.0669 30.9086 75.9653 32.2496 75.9653H58.9899C60.3309 75.9653 61.418 77.0669 61.418 78.4257ZM17.4169 39.2916L18.376 40.2172L19.2027 39.1687L25.9253 30.643C26.3438 30.1122 26.2584 29.3381 25.7346 28.914C25.2108 28.4899 24.4468 28.5764 24.0283 29.1072L18.1356 36.5873L16.5769 35.083C16.0914 34.6144 15.3229 34.6333 14.8604 35.1253C14.398 35.6173 14.4167 36.3959 14.9022 36.8645L17.4169 39.2916ZM18.376 61.6117L17.4169 60.686L14.9022 58.259C14.4167 57.7904 14.398 57.0117 14.8604 56.5198C15.3229 56.0278 16.0914 56.0089 16.5769 56.4774L18.1356 57.9818L24.0283 50.5017C24.4468 49.9709 25.2108 49.8844 25.7346 50.3085C26.2584 50.7326 26.3438 51.5067 25.9253 52.0375L19.2027 60.5632L18.376 61.6117Z" fill="white"/>
</svg>
