<svg width="127" height="107" viewBox="0 0 127 107" fill="none" xmlns="http://www.w3.org/2000/svg">
<path d="M3.25 62L8.74316 36.6436C9.68066 32.3369 10.4277 27.8545 10.9844 23.1963C11.5703 18.5088 11.8633 14.1875 11.8633 10.2324C11.8633 9.32422 11.8486 8.51855 11.8193 7.81543L16.6533 5.61816V6.84863C16.6533 8.78223 16.4775 11.9023 16.126 16.209C15.7744 20.5156 15.4082 23.8262 15.0273 26.1406C16.8145 21.9512 19.041 18.0693 21.707 14.4951C24.373 10.8916 27.0977 8.0498 29.8809 5.96973C32.6934 3.88965 35.2422 2.84961 37.5273 2.84961C39.8125 2.84961 41.6436 3.77246 43.0205 5.61816C44.4268 7.43457 45.1299 9.88086 45.1299 12.957C45.1299 16.8242 44.2949 20.7061 42.625 24.6025C40.9551 28.499 38.6699 32.0879 35.7695 35.3691C32.8984 38.6504 29.7344 41.2432 26.2773 43.1475C22.8496 45.0225 19.4512 45.96 16.082 45.96C15.3203 45.96 14.4268 45.8574 13.4014 45.6523L15.7305 42.5322C17.166 43.001 18.6309 43.2354 20.125 43.2354C22.5566 43.2354 24.9883 42.4297 27.4199 40.8184C29.8809 39.1777 32.0781 36.8779 34.0117 33.9189C35.7988 31.1943 37.3223 27.8105 38.582 23.7676C39.8418 19.6953 40.4717 16.1797 40.4717 13.2207C40.4717 10.7598 40.0469 8.84082 39.1973 7.46387C38.377 6.08691 37.2197 5.39844 35.7256 5.39844C33.6162 5.39844 31.1846 6.61426 28.4307 9.0459C25.6768 11.4482 22.9814 14.7148 20.3447 18.8457C18.4404 21.7754 16.8438 24.9395 15.5547 28.3379C14.2949 31.7363 13.167 35.6768 12.1709 40.1592L7.4248 62H3.25ZM51.9414 19.0654C52.7031 19.0654 53.3184 19.2998 53.7871 19.7686C54.2559 20.2373 54.4902 20.8525 54.4902 21.6143C54.4902 22.3467 54.2412 22.9619 53.7432 23.46C53.2451 23.958 52.6445 24.207 51.9414 24.207C51.2676 24.207 50.667 23.9434 50.1396 23.416C49.6123 22.8887 49.3486 22.2881 49.3486 21.6143C49.3486 20.9111 49.5977 20.3105 50.0957 19.8125C50.5938 19.3145 51.209 19.0654 51.9414 19.0654ZM50.667 36.292L46.7998 50.75C46.1553 53.123 45.833 55.0273 45.833 56.4629C45.833 57.4004 45.9941 58.1621 46.3164 58.748C46.6387 59.334 47.0635 59.627 47.5908 59.627C48.499 59.627 49.9492 58.543 51.9414 56.375L52.6445 56.9902L52.2051 57.4736C50.5352 59.4365 49.3047 60.7695 48.5137 61.4727C47.7227 62.1465 46.9902 62.4834 46.3164 62.4834C45.4082 62.4834 44.6318 62.0293 43.9873 61.1211C43.3721 60.1836 43.0645 59.0264 43.0645 57.6494C43.0645 56.7705 43.2402 55.3789 43.5918 53.4746L46.3604 38.0938L50.667 36.292ZM59.1484 37.0391H73.5186L73.8701 38.0938L73.2109 38.8848L68.2012 44.9053C64.4805 49.417 62.0195 52.4346 60.8184 53.958C59.6172 55.4521 58.4746 56.9902 57.3906 58.5723C58.8555 58.7188 60.7012 58.792 62.9277 58.792C64.8613 58.792 66.7949 58.7627 68.7285 58.7041C69.2852 58.7041 70.1934 58.6602 71.4531 58.5723L71.0137 62.0439H53.6113L53.084 60.9014L53.6992 60.1982C54.168 59.6709 54.7539 58.9971 55.457 58.1768C56.1602 57.3564 57.0244 56.3457 58.0498 55.1445C59.0752 53.9141 59.8955 52.918 60.5107 52.1562C61.1553 51.3945 61.6533 50.7939 62.0049 50.3545L66.0479 45.2129C67.5713 43.2793 68.8457 41.624 69.8711 40.2471H58.4893L59.1484 37.0391ZM79.9785 37.0391H94.3486L94.7002 38.0938L94.041 38.8848L89.0312 44.9053C85.3105 49.417 82.8496 52.4346 81.6484 53.958C80.4473 55.4521 79.3047 56.9902 78.2207 58.5723C79.6855 58.7188 81.5312 58.792 83.7578 58.792C85.6914 58.792 87.625 58.7627 89.5586 58.7041C90.1152 58.7041 91.0234 58.6602 92.2832 58.5723L91.8438 62.0439H74.4414L73.9141 60.9014L74.5293 60.1982C74.998 59.6709 75.584 58.9971 76.2871 58.1768C76.9902 57.3564 77.8545 56.3457 78.8799 55.1445C79.9053 53.9141 80.7256 52.918 81.3408 52.1562C81.9854 51.3945 82.4834 50.7939 82.835 50.3545L86.8779 45.2129C88.4014 43.2793 89.6758 41.624 90.7012 40.2471H79.3193L79.9785 37.0391ZM121.331 36.0283L117.2 52.1123C116.761 53.8701 116.541 55.2471 116.541 56.2432C116.541 57.1221 116.731 57.8838 117.112 58.5283C117.493 59.1729 117.962 59.4951 118.519 59.4951C119.368 59.4951 120.774 58.4551 122.737 56.375L123.353 56.9902L122.869 57.5615C121.316 59.3486 120.115 60.6084 119.266 61.3408C118.445 62.0439 117.728 62.3955 117.112 62.3955C116.175 62.3955 115.354 61.9121 114.651 60.9453C113.978 59.9492 113.641 58.8066 113.641 57.5176C113.641 56.5801 113.992 54.4561 114.695 51.1455L115.047 49.4756C113.963 51.9951 112.513 54.4121 110.696 56.7266C107.649 60.5938 104.734 62.5273 101.951 62.5273C100.281 62.5273 98.9629 61.9268 97.9961 60.7256C97.0293 59.5244 96.5459 57.9131 96.5459 55.8916C96.5459 53.1377 97.3223 50.252 98.875 47.2344C100.457 44.2168 102.405 41.7412 104.72 39.8076C107.063 37.8447 109.334 36.8633 111.531 36.8633C113.846 36.8633 115.574 37.7129 116.717 39.4121L117.2 37.7422L121.331 36.0283ZM116.277 41.6533C115.926 40.54 115.325 39.6758 114.476 39.0605C113.655 38.416 112.703 38.0938 111.619 38.0938C110.33 38.0938 108.968 38.6943 107.532 39.8955C106.097 41.0674 104.778 42.708 103.577 44.8174C102.64 46.4873 101.849 48.333 101.204 50.3545C100.589 52.376 100.281 54.0459 100.281 55.3643C100.281 56.8584 100.56 58.0303 101.116 58.8799C101.702 59.7295 102.522 60.1543 103.577 60.1543C104.925 60.1543 106.331 59.5244 107.796 58.2646C109.261 57.0049 110.711 55.2031 112.146 52.8594C113.025 51.5117 113.714 50.1641 114.212 48.8164C114.71 47.4688 115.267 45.5938 115.882 43.1914L116.277 41.6533Z" fill="#565554"/>
<path opacity="0.5" d="M3.75309 88.65V90H2.11509V76.392H3.80709V82.746H3.86109C4.14909 82.326 4.55109 81.972 5.06709 81.684C5.58309 81.384 6.19509 81.234 6.90309 81.234C7.53909 81.234 8.11509 81.348 8.63109 81.576C9.15909 81.804 9.60909 82.122 9.98109 82.53C10.3651 82.938 10.6591 83.418 10.8631 83.97C11.0671 84.51 11.1691 85.092 11.1691 85.716C11.1691 86.34 11.0671 86.928 10.8631 87.48C10.6591 88.032 10.3711 88.512 9.99909 88.92C9.62709 89.328 9.17709 89.652 8.64909 89.892C8.12109 90.12 7.52709 90.234 6.86709 90.234C6.25509 90.234 5.67309 90.102 5.12109 89.838C4.56909 89.562 4.12509 89.166 3.78909 88.65H3.75309ZM9.42309 85.716C9.42309 85.32 9.36309 84.936 9.24309 84.564C9.12309 84.192 8.94309 83.862 8.70309 83.574C8.46309 83.286 8.16309 83.058 7.80309 82.89C7.45509 82.722 7.04709 82.638 6.57909 82.638C6.14709 82.638 5.75109 82.722 5.39109 82.89C5.04309 83.058 4.74309 83.286 4.49109 83.574C4.23909 83.862 4.04109 84.192 3.89709 84.564C3.76509 84.936 3.69909 85.326 3.69909 85.734C3.69909 86.142 3.76509 86.532 3.89709 86.904C4.04109 87.276 4.23909 87.606 4.49109 87.894C4.74309 88.17 5.04309 88.392 5.39109 88.56C5.75109 88.728 6.14709 88.812 6.57909 88.812C7.04709 88.812 7.45509 88.728 7.80309 88.56C8.16309 88.38 8.46309 88.146 8.70309 87.858C8.94309 87.57 9.12309 87.24 9.24309 86.868C9.36309 86.496 9.42309 86.112 9.42309 85.716ZM16.7625 88.164H16.7985L19.1565 81.468H20.9565L16.8165 92.016C16.6725 92.376 16.5165 92.694 16.3485 92.97C16.1805 93.258 15.9825 93.498 15.7545 93.69C15.5265 93.894 15.2565 94.05 14.9445 94.158C14.6445 94.266 14.2845 94.32 13.8645 94.32C13.6845 94.32 13.4985 94.308 13.3065 94.284C13.1265 94.272 12.9405 94.242 12.7485 94.194L12.9105 92.7C13.1985 92.796 13.4805 92.844 13.7565 92.844C14.2005 92.844 14.5305 92.718 14.7465 92.466C14.9625 92.226 15.1605 91.878 15.3405 91.422L15.8805 90L12.2265 81.468H14.1165L16.7625 88.164ZM27.1828 77.256H31.0708C31.7548 77.256 32.3788 77.328 32.9428 77.472C33.5068 77.604 33.9868 77.814 34.3828 78.102C34.7788 78.39 35.0848 78.756 35.3008 79.2C35.5168 79.644 35.6248 80.178 35.6248 80.802C35.6248 81.438 35.5048 81.984 35.2648 82.44C35.0368 82.896 34.7128 83.268 34.2928 83.556C33.8848 83.844 33.3928 84.06 32.8168 84.204C32.2528 84.336 31.6408 84.402 30.9808 84.402H28.9648V90H27.1828V77.256ZM28.9648 82.89H30.8548C31.2868 82.89 31.6828 82.854 32.0428 82.782C32.4148 82.698 32.7328 82.578 32.9968 82.422C33.2608 82.254 33.4648 82.038 33.6088 81.774C33.7528 81.51 33.8248 81.186 33.8248 80.802C33.8248 80.418 33.7468 80.1 33.5908 79.848C33.4468 79.584 33.2428 79.374 32.9788 79.218C32.7268 79.05 32.4208 78.936 32.0608 78.876C31.7008 78.804 31.3108 78.768 30.8908 78.768H28.9648V82.89ZM39.0684 90H37.3764V81.468H39.0684V90ZM39.3564 78.39C39.3564 78.702 39.2424 78.96 39.0144 79.164C38.7984 79.368 38.5344 79.47 38.2224 79.47C37.9104 79.47 37.6464 79.368 37.4304 79.164C37.2144 78.948 37.1064 78.69 37.1064 78.39C37.1064 78.078 37.2144 77.82 37.4304 77.616C37.6464 77.4 37.9104 77.292 38.2224 77.292C38.5344 77.292 38.7984 77.4 39.0144 77.616C39.2424 77.82 39.3564 78.078 39.3564 78.39ZM48.1006 82.854L43.2406 88.578H48.2986V90H41.1526V88.614L45.9766 82.854H41.3866V81.468H48.1006V82.854ZM56.415 82.854L51.555 88.578H56.613V90H49.467V88.614L54.291 82.854H49.701V81.468H56.415V82.854ZM63.9555 84.474C63.9555 83.838 63.7635 83.37 63.3795 83.07C62.9955 82.758 62.4855 82.602 61.8495 82.602C61.3695 82.602 60.9135 82.698 60.4815 82.89C60.0615 83.07 59.7075 83.304 59.4195 83.592L58.5195 82.512C58.9395 82.116 59.4495 81.804 60.0495 81.576C60.6615 81.348 61.3155 81.234 62.0115 81.234C62.6235 81.234 63.1515 81.324 63.5955 81.504C64.0515 81.672 64.4235 81.906 64.7115 82.206C64.9995 82.506 65.2155 82.86 65.3595 83.268C65.5035 83.676 65.5755 84.114 65.5755 84.582V88.308C65.5755 88.596 65.5815 88.902 65.5935 89.226C65.6175 89.538 65.6535 89.796 65.7015 90H64.1715C64.0755 89.592 64.0275 89.184 64.0275 88.776H63.9735C63.6615 89.232 63.2655 89.586 62.7855 89.838C62.3175 90.09 61.7595 90.216 61.1115 90.216C60.7755 90.216 60.4215 90.168 60.0495 90.072C59.6895 89.988 59.3595 89.844 59.0595 89.64C58.7595 89.436 58.5075 89.166 58.3035 88.83C58.1115 88.494 58.0155 88.08 58.0155 87.588C58.0155 86.94 58.1895 86.43 58.5375 86.058C58.8855 85.674 59.3415 85.386 59.9055 85.194C60.4695 84.99 61.1055 84.858 61.8135 84.798C62.5215 84.738 63.2355 84.708 63.9555 84.708V84.474ZM63.5415 85.932C63.1215 85.932 62.6835 85.95 62.2275 85.986C61.7835 86.022 61.3755 86.094 61.0035 86.202C60.6435 86.31 60.3435 86.472 60.1035 86.688C59.8635 86.904 59.7435 87.192 59.7435 87.552C59.7435 87.804 59.7915 88.014 59.8875 88.182C59.9955 88.35 60.1335 88.488 60.3015 88.596C60.4695 88.704 60.6555 88.782 60.8595 88.83C61.0635 88.866 61.2735 88.884 61.4895 88.884C62.2815 88.884 62.8875 88.65 63.3075 88.182C63.7395 87.702 63.9555 87.102 63.9555 86.382V85.932H63.5415ZM73.0094 83.628C72.8174 83.316 72.5474 83.064 72.1994 82.872C71.8514 82.668 71.4614 82.566 71.0294 82.566C70.8374 82.566 70.6454 82.59 70.4534 82.638C70.2614 82.674 70.0874 82.74 69.9314 82.836C69.7874 82.92 69.6674 83.034 69.5714 83.178C69.4874 83.31 69.4454 83.478 69.4454 83.682C69.4454 84.042 69.6074 84.312 69.9314 84.492C70.2554 84.66 70.7414 84.816 71.3894 84.96C71.7974 85.056 72.1754 85.17 72.5234 85.302C72.8714 85.434 73.1714 85.602 73.4234 85.806C73.6874 85.998 73.8914 86.232 74.0354 86.508C74.1794 86.784 74.2514 87.108 74.2514 87.48C74.2514 87.984 74.1554 88.41 73.9634 88.758C73.7714 89.106 73.5134 89.394 73.1894 89.622C72.8774 89.838 72.5174 89.994 72.1094 90.09C71.7014 90.186 71.2814 90.234 70.8494 90.234C70.2014 90.234 69.5654 90.108 68.9414 89.856C68.3294 89.604 67.8194 89.22 67.4114 88.704L68.6174 87.678C68.8454 88.014 69.1574 88.296 69.5534 88.524C69.9614 88.752 70.4054 88.866 70.8854 88.866C71.1014 88.866 71.3054 88.848 71.4974 88.812C71.7014 88.764 71.8814 88.692 72.0374 88.596C72.2054 88.5 72.3374 88.374 72.4334 88.218C72.5294 88.062 72.5774 87.864 72.5774 87.624C72.5774 87.228 72.3854 86.934 72.0014 86.742C71.6294 86.55 71.0774 86.37 70.3454 86.202C70.0574 86.13 69.7634 86.046 69.4634 85.95C69.1754 85.842 68.9114 85.698 68.6714 85.518C68.4314 85.338 68.2334 85.116 68.0774 84.852C67.9334 84.576 67.8614 84.24 67.8614 83.844C67.8614 83.388 67.9514 82.998 68.1314 82.674C68.3234 82.338 68.5694 82.068 68.8694 81.864C69.1694 81.648 69.5114 81.492 69.8954 81.396C70.2794 81.288 70.6754 81.234 71.0834 81.234C71.6954 81.234 72.2834 81.354 72.8474 81.594C73.4234 81.834 73.8674 82.182 74.1794 82.638L73.0094 83.628ZM80.5754 82.854H78.3074V87.3C78.3074 87.816 78.4034 88.188 78.5954 88.416C78.7874 88.632 79.0934 88.74 79.5134 88.74C79.6694 88.74 79.8374 88.722 80.0174 88.686C80.1974 88.65 80.3594 88.596 80.5034 88.524L80.5574 89.91C80.3534 89.982 80.1254 90.036 79.8734 90.072C79.6334 90.12 79.3814 90.144 79.1174 90.144C78.3134 90.144 77.6954 89.922 77.2634 89.478C76.8434 89.034 76.6334 88.368 76.6334 87.48V82.854H74.9954V81.468H76.6334V79.02H78.3074V81.468H80.5754V82.854ZM82.3232 83.304C82.3232 83.076 82.3172 82.782 82.3052 82.422C82.2932 82.062 82.2752 81.744 82.2512 81.468H83.8532C83.8772 81.684 83.8952 81.936 83.9072 82.224C83.9192 82.5 83.9252 82.728 83.9252 82.908H83.9792C84.2192 82.404 84.5672 82.002 85.0232 81.702C85.4912 81.39 86.0132 81.234 86.5892 81.234C86.8532 81.234 87.0752 81.258 87.2552 81.306L87.1832 82.872C86.9432 82.812 86.6852 82.782 86.4092 82.782C86.0012 82.782 85.6472 82.86 85.3472 83.016C85.0472 83.16 84.7952 83.358 84.5912 83.61C84.3992 83.862 84.2552 84.156 84.1592 84.492C84.0632 84.816 84.0152 85.158 84.0152 85.518V90H82.3232V83.304ZM94.7743 84.978C94.7623 84.642 94.7023 84.33 94.5943 84.042C94.4983 83.742 94.3483 83.484 94.1443 83.268C93.9523 83.052 93.7063 82.884 93.4063 82.764C93.1183 82.632 92.7763 82.566 92.3803 82.566C92.0203 82.566 91.6783 82.632 91.3543 82.764C91.0423 82.884 90.7663 83.052 90.5263 83.268C90.2983 83.484 90.1063 83.742 89.9503 84.042C89.8063 84.33 89.7223 84.642 89.6983 84.978H94.7743ZM96.4843 85.662C96.4843 85.758 96.4843 85.854 96.4843 85.95C96.4843 86.046 96.4783 86.142 96.4663 86.238H89.6983C89.7103 86.598 89.7883 86.94 89.9323 87.264C90.0883 87.576 90.2923 87.852 90.5443 88.092C90.7963 88.32 91.0843 88.5 91.4083 88.632C91.7443 88.764 92.0983 88.83 92.4703 88.83C93.0463 88.83 93.5443 88.704 93.9643 88.452C94.3843 88.2 94.7143 87.894 94.9543 87.534L96.1423 88.488C95.6863 89.088 95.1463 89.532 94.5223 89.82C93.9103 90.096 93.2263 90.234 92.4703 90.234C91.8223 90.234 91.2223 90.126 90.6703 89.91C90.1183 89.694 89.6443 89.394 89.2483 89.01C88.8523 88.614 88.5403 88.14 88.3123 87.588C88.0843 87.036 87.9703 86.424 87.9703 85.752C87.9703 85.092 88.0783 84.486 88.2943 83.934C88.5223 83.37 88.8343 82.89 89.2303 82.494C89.6263 82.098 90.0943 81.792 90.6343 81.576C91.1743 81.348 91.7563 81.234 92.3803 81.234C93.0043 81.234 93.5683 81.336 94.0723 81.54C94.5883 81.744 95.0203 82.038 95.3683 82.422C95.7283 82.806 96.0043 83.274 96.1963 83.826C96.3883 84.366 96.4843 84.978 96.4843 85.662ZM104.051 84.474C104.051 83.838 103.859 83.37 103.475 83.07C103.091 82.758 102.581 82.602 101.945 82.602C101.465 82.602 101.009 82.698 100.577 82.89C100.157 83.07 99.8032 83.304 99.5152 83.592L98.6152 82.512C99.0352 82.116 99.5452 81.804 100.145 81.576C100.757 81.348 101.411 81.234 102.107 81.234C102.719 81.234 103.247 81.324 103.691 81.504C104.147 81.672 104.519 81.906 104.807 82.206C105.095 82.506 105.311 82.86 105.455 83.268C105.599 83.676 105.671 84.114 105.671 84.582V88.308C105.671 88.596 105.677 88.902 105.689 89.226C105.713 89.538 105.749 89.796 105.797 90H104.267C104.171 89.592 104.123 89.184 104.123 88.776H104.069C103.757 89.232 103.361 89.586 102.881 89.838C102.413 90.09 101.855 90.216 101.207 90.216C100.871 90.216 100.517 90.168 100.145 90.072C99.7852 89.988 99.4552 89.844 99.1552 89.64C98.8552 89.436 98.6032 89.166 98.3992 88.83C98.2072 88.494 98.1112 88.08 98.1112 87.588C98.1112 86.94 98.2852 86.43 98.6332 86.058C98.9812 85.674 99.4372 85.386 100.001 85.194C100.565 84.99 101.201 84.858 101.909 84.798C102.617 84.738 103.331 84.708 104.051 84.708V84.474ZM103.637 85.932C103.217 85.932 102.779 85.95 102.323 85.986C101.879 86.022 101.471 86.094 101.099 86.202C100.739 86.31 100.439 86.472 100.199 86.688C99.9592 86.904 99.8392 87.192 99.8392 87.552C99.8392 87.804 99.8872 88.014 99.9832 88.182C100.091 88.35 100.229 88.488 100.397 88.596C100.565 88.704 100.751 88.782 100.955 88.83C101.159 88.866 101.369 88.884 101.585 88.884C102.377 88.884 102.983 88.65 103.403 88.182C103.835 87.702 104.051 87.102 104.051 86.382V85.932H103.637ZM110.153 82.872C110.369 82.416 110.711 82.032 111.179 81.72C111.659 81.396 112.223 81.234 112.871 81.234C113.447 81.234 113.963 81.366 114.419 81.63C114.887 81.894 115.253 82.332 115.517 82.944C115.805 82.392 116.207 81.972 116.723 81.684C117.239 81.384 117.803 81.234 118.415 81.234C118.967 81.234 119.441 81.33 119.837 81.522C120.233 81.702 120.563 81.948 120.827 82.26C121.091 82.572 121.283 82.938 121.403 83.358C121.535 83.778 121.601 84.228 121.601 84.708V90H119.909V85.266C119.909 84.918 119.879 84.588 119.819 84.276C119.759 83.964 119.657 83.688 119.513 83.448C119.369 83.208 119.177 83.016 118.937 82.872C118.697 82.728 118.391 82.656 118.019 82.656C117.635 82.656 117.305 82.74 117.029 82.908C116.753 83.064 116.525 83.274 116.345 83.538C116.177 83.79 116.051 84.078 115.967 84.402C115.895 84.726 115.859 85.056 115.859 85.392V90H114.167V84.924C114.167 84.588 114.137 84.282 114.077 84.006C114.017 83.73 113.915 83.496 113.771 83.304C113.627 83.1 113.441 82.944 113.213 82.836C112.985 82.716 112.703 82.656 112.367 82.656C111.743 82.656 111.221 82.914 110.801 83.43C110.393 83.934 110.189 84.612 110.189 85.464V90H108.497V83.304C108.497 83.076 108.491 82.782 108.479 82.422C108.467 82.062 108.449 81.744 108.425 81.468H110.027C110.051 81.684 110.069 81.93 110.081 82.206C110.093 82.47 110.099 82.692 110.099 82.872H110.153Z" fill="#565554"/>
</svg>
