<svg width="960" height="50" viewBox="0 0 960 50" fill="none" xmlns="http://www.w3.org/2000/svg">
<rect width="960" height="50" fill="#D8D8D8"/>
<mask id="mask0" mask-type="alpha" maskUnits="userSpaceOnUse" x="0" y="0" width="960" height="50">
<rect width="960" height="50" fill="white"/>
</mask>
<g mask="url(#mask0)">
<path d="M-39.5 50L10.5 0" stroke="#474747" stroke-width="10" stroke-linecap="square"/>
<path d="M610.5 50L660.5 0" stroke="#474747" stroke-width="10" stroke-linecap="square"/>
<path d="M-14.5 50L35.5 0" stroke="#474747" stroke-width="10" stroke-linecap="square"/>
<path d="M635.5 50L685.5 0" stroke="#474747" stroke-width="10" stroke-linecap="square"/>
<path d="M10.5 50L60.5 0" stroke="#474747" stroke-width="10" stroke-linecap="square"/>
<path d="M660.5 50L710.5 0" stroke="#474747" stroke-width="10" stroke-linecap="square"/>
<path d="M35.5 50L85.5 0" stroke="#474747" stroke-width="10" stroke-linecap="square"/>
<path d="M685.5 50L735.5 0" stroke="#474747" stroke-width="10" stroke-linecap="square"/>
<path d="M60.5 50L110.5 0" stroke="#474747" stroke-width="10" stroke-linecap="square"/>
<path d="M710.5 50L760.5 0" stroke="#474747" stroke-width="10" stroke-linecap="square"/>
<path d="M85.5 50L135.5 0" stroke="#474747" stroke-width="10" stroke-linecap="square"/>
<path d="M735.5 50L785.5 0" stroke="#474747" stroke-width="10" stroke-linecap="square"/>
<path d="M110.5 50L160.5 0" stroke="#474747" stroke-width="10" stroke-linecap="square"/>
<path d="M760.5 50L810.5 0" stroke="#474747" stroke-width="10" stroke-linecap="square"/>
<path d="M135.5 50L185.5 0" stroke="#474747" stroke-width="10" stroke-linecap="square"/>
<path d="M785.5 50L835.5 0" stroke="#474747" stroke-width="10" stroke-linecap="square"/>
<path d="M160.5 50L210.5 0" stroke="#474747" stroke-width="10" stroke-linecap="square"/>
<path d="M810.5 50L860.5 0" stroke="#474747" stroke-width="10" stroke-linecap="square"/>
<path d="M185.5 50L235.5 0" stroke="#474747" stroke-width="10" stroke-linecap="square"/>
<path d="M835.5 50L885.5 0" stroke="#474747" stroke-width="10" stroke-linecap="square"/>
<path d="M210.5 50L260.5 0" stroke="#474747" stroke-width="10" stroke-linecap="square"/>
<path d="M860.5 50L910.5 0" stroke="#474747" stroke-width="10" stroke-linecap="square"/>
<path d="M235.5 50L285.5 0" stroke="#474747" stroke-width="10" stroke-linecap="square"/>
<path d="M885.5 50L935.5 0" stroke="#474747" stroke-width="10" stroke-linecap="square"/>
<path d="M260.5 50L310.5 0" stroke="#474747" stroke-width="10" stroke-linecap="square"/>
<path d="M910.5 50L960.5 0" stroke="#474747" stroke-width="10" stroke-linecap="square"/>
<path d="M285.5 50L335.5 0" stroke="#474747" stroke-width="10" stroke-linecap="square"/>
<path d="M935.5 50L985.5 0" stroke="#474747" stroke-width="10" stroke-linecap="square"/>
<path d="M310.5 50L360.5 0" stroke="#474747" stroke-width="10" stroke-linecap="square"/>
<path d="M960.5 50L1010.5 0" stroke="#474747" stroke-width="10" stroke-linecap="square"/>
<path d="M335.5 50L385.5 0" stroke="#474747" stroke-width="10" stroke-linecap="square"/>
<path d="M360.5 50L410.5 0" stroke="#474747" stroke-width="10" stroke-linecap="square"/>
<path d="M385.5 50L435.5 0" stroke="#474747" stroke-width="10" stroke-linecap="square"/>
<path d="M410.5 50L460.5 0" stroke="#474747" stroke-width="10" stroke-linecap="square"/>
<path d="M435.5 50L485.5 0" stroke="#474747" stroke-width="10" stroke-linecap="square"/>
<path d="M460.5 50L510.5 0" stroke="#474747" stroke-width="10" stroke-linecap="square"/>
<path d="M485.5 50L535.5 0" stroke="#474747" stroke-width="10" stroke-linecap="square"/>
<path d="M510.5 50L560.5 0" stroke="#474747" stroke-width="10" stroke-linecap="square"/>
<path d="M535.5 50L585.5 0" stroke="#474747" stroke-width="10" stroke-linecap="square"/>
<path d="M560.5 50L610.5 0" stroke="#474747" stroke-width="10" stroke-linecap="square"/>
<path d="M585.5 50L635.5 0" stroke="#474747" stroke-width="10" stroke-linecap="square"/>
</g>
</svg>
