<svg width="237" height="919" viewBox="0 0 237 919" fill="none" xmlns="http://www.w3.org/2000/svg">
<g opacity="0.3">
<path fill-rule="evenodd" clip-rule="evenodd" d="M79.2996 79.2996L55.6065 7.52327C55.6065 7.52327 34.242 16.8771 25.5595 25.5595C16.877 34.242 7.52326 55.6065 7.52326 55.6065L79.2996 79.2996Z" stroke="white" stroke-width="2" stroke-linejoin="round"/>
<path fill-rule="evenodd" clip-rule="evenodd" d="M34.0448 52.4296C36.3879 50.0864 36.3879 46.2874 34.0448 43.9443C31.7016 41.6011 27.9027 41.6011 25.5595 43.9443C23.2164 46.2874 23.2164 50.0864 25.5595 52.4296C27.9027 54.7727 31.7016 54.7727 34.0448 52.4296Z" stroke="white" stroke-width="2"/>
<path fill-rule="evenodd" clip-rule="evenodd" d="M58.7935 64.4504C61.1367 62.1072 61.1367 58.3082 58.7935 55.9651C56.4504 53.622 52.6514 53.622 50.3082 55.9651C47.9651 58.3082 47.9651 62.1072 50.3082 64.4504C52.6514 66.7935 56.4504 66.7935 58.7935 64.4504Z" stroke="white" stroke-width="2"/>
<path fill-rule="evenodd" clip-rule="evenodd" d="M56.3187 44.2978C58.4665 42.15 58.4665 38.6675 56.3187 36.5197C54.1708 34.3718 50.6884 34.3718 48.5405 36.5197C46.3926 38.6675 46.3926 42.15 48.5405 44.2978C50.6884 46.4457 54.1708 46.4457 56.3187 44.2978Z" stroke="white" stroke-width="2"/>
</g>
<g opacity="0.3">
<path fill-rule="evenodd" clip-rule="evenodd" d="M211.3 193.3L187.607 121.523C187.607 121.523 166.242 130.877 157.56 139.56C148.877 148.242 139.523 169.607 139.523 169.607L211.3 193.3Z" stroke="white" stroke-width="2" stroke-linejoin="round"/>
<path fill-rule="evenodd" clip-rule="evenodd" d="M166.045 166.43C168.388 164.086 168.388 160.287 166.045 157.944C163.702 155.601 159.903 155.601 157.56 157.944C155.216 160.287 155.216 164.086 157.56 166.43C159.903 168.773 163.702 168.773 166.045 166.43Z" stroke="white" stroke-width="2"/>
<path fill-rule="evenodd" clip-rule="evenodd" d="M190.794 178.45C193.137 176.107 193.137 172.308 190.794 169.965C188.45 167.622 184.651 167.622 182.308 169.965C179.965 172.308 179.965 176.107 182.308 178.45C184.651 180.794 188.45 180.794 190.794 178.45Z" stroke="white" stroke-width="2"/>
<path fill-rule="evenodd" clip-rule="evenodd" d="M188.319 158.298C190.467 156.15 190.467 152.668 188.319 150.52C186.171 148.372 182.688 148.372 180.54 150.52C178.393 152.668 178.393 156.15 180.54 158.298C182.688 160.446 186.171 160.446 188.319 158.298Z" stroke="white" stroke-width="2"/>
</g>
<g opacity="0.3">
<path fill-rule="evenodd" clip-rule="evenodd" d="M211.3 425.3L187.607 353.523C187.607 353.523 166.242 362.877 157.56 371.56C148.877 380.242 139.523 401.607 139.523 401.607L211.3 425.3Z" stroke="white" stroke-width="2" stroke-linejoin="round"/>
<path fill-rule="evenodd" clip-rule="evenodd" d="M166.045 398.43C168.388 396.086 168.388 392.287 166.045 389.944C163.702 387.601 159.903 387.601 157.56 389.944C155.216 392.287 155.216 396.086 157.56 398.43C159.903 400.773 163.702 400.773 166.045 398.43Z" stroke="white" stroke-width="2"/>
<path fill-rule="evenodd" clip-rule="evenodd" d="M190.794 410.45C193.137 408.107 193.137 404.308 190.794 401.965C188.45 399.622 184.651 399.622 182.308 401.965C179.965 404.308 179.965 408.107 182.308 410.45C184.651 412.794 188.45 412.794 190.794 410.45Z" stroke="white" stroke-width="2"/>
<path fill-rule="evenodd" clip-rule="evenodd" d="M188.319 390.298C190.467 388.15 190.467 384.668 188.319 382.52C186.171 380.372 182.688 380.372 180.54 382.52C178.393 384.668 178.393 388.15 180.54 390.298C182.688 392.446 186.171 392.446 188.319 390.298Z" stroke="white" stroke-width="2"/>
</g>
<g opacity="0.3">
<path fill-rule="evenodd" clip-rule="evenodd" d="M211.3 657.3L187.607 585.523C187.607 585.523 166.242 594.877 157.56 603.56C148.877 612.242 139.523 633.607 139.523 633.607L211.3 657.3Z" stroke="white" stroke-width="2" stroke-linejoin="round"/>
<path fill-rule="evenodd" clip-rule="evenodd" d="M166.045 630.43C168.388 628.086 168.388 624.287 166.045 621.944C163.702 619.601 159.903 619.601 157.56 621.944C155.216 624.287 155.216 628.086 157.56 630.43C159.903 632.773 163.702 632.773 166.045 630.43Z" stroke="white" stroke-width="2"/>
<path fill-rule="evenodd" clip-rule="evenodd" d="M190.794 642.45C193.137 640.107 193.137 636.308 190.794 633.965C188.45 631.622 184.651 631.622 182.308 633.965C179.965 636.308 179.965 640.107 182.308 642.45C184.651 644.794 188.45 644.794 190.794 642.45Z" stroke="white" stroke-width="2"/>
<path fill-rule="evenodd" clip-rule="evenodd" d="M188.319 622.298C190.467 620.15 190.467 616.668 188.319 614.52C186.171 612.372 182.688 612.372 180.54 614.52C178.393 616.668 178.393 620.15 180.54 622.298C182.688 624.446 186.171 624.446 188.319 622.298Z" stroke="white" stroke-width="2"/>
</g>
<g opacity="0.3">
<path fill-rule="evenodd" clip-rule="evenodd" d="M211.3 893.3L187.607 821.523C187.607 821.523 166.242 830.877 157.56 839.56C148.877 848.242 139.523 869.607 139.523 869.607L211.3 893.3Z" stroke="white" stroke-width="2" stroke-linejoin="round"/>
<path fill-rule="evenodd" clip-rule="evenodd" d="M166.045 866.43C168.388 864.086 168.388 860.287 166.045 857.944C163.702 855.601 159.903 855.601 157.56 857.944C155.216 860.287 155.216 864.086 157.56 866.43C159.903 868.773 163.702 868.773 166.045 866.43Z" stroke="white" stroke-width="2"/>
<path fill-rule="evenodd" clip-rule="evenodd" d="M190.794 878.45C193.137 876.107 193.137 872.308 190.794 869.965C188.45 867.622 184.651 867.622 182.308 869.965C179.965 872.308 179.965 876.107 182.308 878.45C184.651 880.794 188.45 880.794 190.794 878.45Z" stroke="white" stroke-width="2"/>
<path fill-rule="evenodd" clip-rule="evenodd" d="M188.319 858.298C190.467 856.15 190.467 852.668 188.319 850.52C186.171 848.372 182.688 848.372 180.54 850.52C178.393 852.668 178.393 856.15 180.54 858.298C182.688 860.446 186.171 860.446 188.319 858.298Z" stroke="white" stroke-width="2"/>
</g>
<g opacity="0.3">
<path fill-rule="evenodd" clip-rule="evenodd" d="M79.2996 307.3L55.6065 235.523C55.6065 235.523 34.242 244.877 25.5595 253.56C16.877 262.242 7.52326 283.607 7.52326 283.607L79.2996 307.3Z" stroke="white" stroke-width="2" stroke-linejoin="round"/>
<path fill-rule="evenodd" clip-rule="evenodd" d="M34.0448 280.43C36.3879 278.086 36.3879 274.287 34.0448 271.944C31.7016 269.601 27.9027 269.601 25.5595 271.944C23.2164 274.287 23.2164 278.086 25.5595 280.43C27.9027 282.773 31.7016 282.773 34.0448 280.43Z" stroke="white" stroke-width="2"/>
<path fill-rule="evenodd" clip-rule="evenodd" d="M58.7935 292.45C61.1367 290.107 61.1367 286.308 58.7935 283.965C56.4504 281.622 52.6514 281.622 50.3082 283.965C47.9651 286.308 47.9651 290.107 50.3082 292.45C52.6514 294.794 56.4504 294.794 58.7935 292.45Z" stroke="white" stroke-width="2"/>
<path fill-rule="evenodd" clip-rule="evenodd" d="M56.3187 272.298C58.4665 270.15 58.4665 266.668 56.3187 264.52C54.1708 262.372 50.6884 262.372 48.5405 264.52C46.3926 266.668 46.3926 270.15 48.5405 272.298C50.6884 274.446 54.1708 274.446 56.3187 272.298Z" stroke="white" stroke-width="2"/>
</g>
<g opacity="0.3">
<path fill-rule="evenodd" clip-rule="evenodd" d="M79.2996 539.3L55.6065 467.523C55.6065 467.523 34.242 476.877 25.5595 485.56C16.877 494.242 7.52326 515.607 7.52326 515.607L79.2996 539.3Z" stroke="white" stroke-width="2" stroke-linejoin="round"/>
<path fill-rule="evenodd" clip-rule="evenodd" d="M34.0448 512.43C36.3879 510.086 36.3879 506.287 34.0448 503.944C31.7016 501.601 27.9027 501.601 25.5595 503.944C23.2164 506.287 23.2164 510.086 25.5595 512.43C27.9027 514.773 31.7016 514.773 34.0448 512.43Z" stroke="white" stroke-width="2"/>
<path fill-rule="evenodd" clip-rule="evenodd" d="M58.7935 524.45C61.1367 522.107 61.1367 518.308 58.7935 515.965C56.4504 513.622 52.6514 513.622 50.3082 515.965C47.9651 518.308 47.9651 522.107 50.3082 524.45C52.6514 526.794 56.4504 526.794 58.7935 524.45Z" stroke="white" stroke-width="2"/>
<path fill-rule="evenodd" clip-rule="evenodd" d="M56.3187 504.298C58.4665 502.15 58.4665 498.668 56.3187 496.52C54.1708 494.372 50.6884 494.372 48.5405 496.52C46.3926 498.668 46.3926 502.15 48.5405 504.298C50.6884 506.446 54.1708 506.446 56.3187 504.298Z" stroke="white" stroke-width="2"/>
</g>
<g opacity="0.3">
<path fill-rule="evenodd" clip-rule="evenodd" d="M79.2996 775.3L55.6065 703.523C55.6065 703.523 34.242 712.877 25.5595 721.56C16.877 730.242 7.52326 751.607 7.52326 751.607L79.2996 775.3Z" stroke="white" stroke-width="2" stroke-linejoin="round"/>
<path fill-rule="evenodd" clip-rule="evenodd" d="M34.0448 748.43C36.3879 746.086 36.3879 742.287 34.0448 739.944C31.7016 737.601 27.9027 737.601 25.5595 739.944C23.2164 742.287 23.2164 746.086 25.5595 748.43C27.9027 750.773 31.7016 750.773 34.0448 748.43Z" stroke="white" stroke-width="2"/>
<path fill-rule="evenodd" clip-rule="evenodd" d="M58.7935 760.45C61.1367 758.107 61.1367 754.308 58.7935 751.965C56.4504 749.622 52.6514 749.622 50.3082 751.965C47.9651 754.308 47.9651 758.107 50.3082 760.45C52.6514 762.794 56.4504 762.794 58.7935 760.45Z" stroke="white" stroke-width="2"/>
<path fill-rule="evenodd" clip-rule="evenodd" d="M56.3187 740.298C58.4665 738.15 58.4665 734.668 56.3187 732.52C54.1708 730.372 50.6884 730.372 48.5405 732.52C46.3926 734.668 46.3926 738.15 48.5405 740.298C50.6884 742.446 54.1708 742.446 56.3187 740.298Z" stroke="white" stroke-width="2"/>
</g>
</svg>
